<svg xmlns="http://www.w3.org/2000/svg" xmlns:xlink="http://www.w3.org/1999/xlink" width="48" height="48" viewBox="0 0 48 48">
  <defs>
    <linearGradient id="linear-gradient" y1="0.698" x2="1" y2="0.697" gradientUnits="objectBoundingBox">
      <stop offset="0" stop-color="#656565"/>
      <stop offset="0.271" stop-color="#fff"/>
      <stop offset="0.453" stop-color="#fff"/>
      <stop offset="1" stop-color="#272727"/>
    </linearGradient>
    <radialGradient id="radial-gradient" cx="0.583" cy="0.251" r="0.661" gradientTransform="matrix(-0.093, 0.996, -0.996, -0.093, 0.86, -0.421)" gradientUnits="objectBoundingBox">
      <stop offset="0" stop-color="#fff"/>
      <stop offset="0.404" stop-color="#339f81"/>
      <stop offset="1" stop-color="#27483d"/>
    </radialGradient>
  </defs>
  <g id="Group_46" data-name="Group 46" transform="translate(-848 -467)">
    <g id="Rectangle_38" data-name="Rectangle 38" transform="translate(848 467)" fill="#fff" stroke="#707070" stroke-width="1" opacity="0">
      <rect width="48" height="48" stroke="none"/>
      <rect x="0.5" y="0.5" width="47" height="47" fill="none"/>
    </g>
    <g id="Group_44" data-name="Group 44" transform="translate(79 -31.181)">
      <path id="Rectangle_37" data-name="Rectangle 37" d="M0,0H3A0,0,0,0,1,3,0V18.5A1.5,1.5,0,0,1,1.5,20h0A1.5,1.5,0,0,1,0,18.5V0A0,0,0,0,1,0,0Z" transform="translate(792 522.181)" fill="url(#linear-gradient)"/>
      <circle id="Ellipse_20" data-name="Ellipse 20" cx="10.5" cy="10.5" r="10.5" transform="translate(783 502.181)" fill="url(#radial-gradient)"/>
    </g>
  </g>
</svg>
